<?xml version="1.0" encoding="UTF-8"?>
<svg version="1.1" xmlns="http://www.w3.org/2000/svg" width="256" height="256">
<path d="M0 0 C84.48 0 168.96 0 256 0 C256 84.48 256 168.96 256 256 C171.52 256 87.04 256 0 256 C0 171.52 0 87.04 0 0 Z " fill="#C0C0C0" transform="translate(0,0)"/>
<path d="M0 0 C84.48 0 168.96 0 256 0 C256 5.28 256 10.56 256 16 C250.72 16 245.44 16 240 16 C240 21.28 240 26.56 240 32 C171.36 32 102.72 32 32 32 C32 100.64 32 169.28 32 240 C26.72 240 21.44 240 16 240 C16 245.28 16 250.56 16 256 C10.72 256 5.44 256 0 256 C0 171.52 0 87.04 0 0 Z " fill="#FFFFFF" transform="translate(0,0)"/>
<path d="M0 0 C5.28 0 10.56 0 16 0 C16 79.2 16 158.4 16 240 C-63.2 240 -142.4 240 -224 240 C-224 234.72 -224 229.44 -224 224 C-218.72 224 -213.44 224 -208 224 C-208 218.72 -208 213.44 -208 208 C-144.64 208 -81.28 208 -16 208 C-16 144.64 -16 81.28 -16 16 C-10.72 16 -5.44 16 0 16 C0 10.72 0 5.44 0 0 Z " fill="#808080" transform="translate(240,16)"/>
<path d="M0 0 C10.56 0 21.12 0 32 0 C32 36.96 32 73.92 32 112 C37.28 112 42.56 112 48 112 C48 117.28 48 122.56 48 128 C58.56 128 69.12 128 80 128 C80 138.56 80 149.12 80 160 C37.76 160 -4.48 160 -48 160 C-48 149.44 -48 138.88 -48 128 C-37.44 128 -26.88 128 -16 128 C-16 122.72 -16 117.44 -16 112 C-5.44 112 5.12 112 16 112 C16 101.44 16 90.88 16 80 C10.72 80 5.44 80 0 80 C0 74.72 0 69.44 0 64 C-10.56 64 -21.12 64 -32 64 C-32 58.72 -32 53.44 -32 48 C-37.28 48 -42.56 48 -48 48 C-48 42.72 -48 37.44 -48 32 C-42.72 32 -37.44 32 -32 32 C-32 26.72 -32 21.44 -32 16 C-21.44 16 -10.88 16 0 16 C0 10.72 0 5.44 0 0 Z " fill="#000000" transform="translate(112,48)"/>
<path d="M0 0 C10.56 0 21.12 0 32 0 C32 26.4 32 52.8 32 80 C21.44 80 10.88 80 0 80 C0 74.72 0 69.44 0 64 C-10.56 64 -21.12 64 -32 64 C-32 58.72 -32 53.44 -32 48 C-37.28 48 -42.56 48 -48 48 C-48 42.72 -48 37.44 -48 32 C-42.72 32 -37.44 32 -32 32 C-32 26.72 -32 21.44 -32 16 C-21.44 16 -10.88 16 0 16 C0 10.72 0 5.44 0 0 Z " fill="#FF0000" transform="translate(112,48)"/>
<path d="M0 0 C5.28 0 10.56 0 16 0 C16 5.28 16 10.56 16 16 C10.72 16 5.44 16 0 16 C0 10.72 0 5.44 0 0 Z " fill="#C0C0C0" transform="translate(0,240)"/>
<path d="M0 0 C5.28 0 10.56 0 16 0 C16 5.28 16 10.56 16 16 C10.72 16 5.44 16 0 16 C0 10.72 0 5.44 0 0 Z " fill="#C0C0C0" transform="translate(16,224)"/>
<path d="M0 0 C5.28 0 10.56 0 16 0 C16 5.28 16 10.56 16 16 C10.72 16 5.44 16 0 16 C0 10.72 0 5.44 0 0 Z " fill="#C0C0C0" transform="translate(224,16)"/>
<path d="M0 0 C5.28 0 10.56 0 16 0 C16 5.28 16 10.56 16 16 C10.72 16 5.44 16 0 16 C0 10.72 0 5.44 0 0 Z " fill="#C0C0C0" transform="translate(240,0)"/>
</svg>
